<?xml version="1.0" encoding="iso-8859-1"?>
<!-- Generator: Adobe Illustrator 19.0.0, SVG Export Plug-In . SVG Version: 6.00 Build 0)  -->
<svg version="1.1" id="Layer_1" xmlns="http://www.w3.org/2000/svg" xmlns:xlink="http://www.w3.org/1999/xlink" x="0px" y="0px"
	 viewBox="0 0 512 512" style="enable-background:new 0 0 512 512;" xml:space="preserve">
<path style="fill:#2D2D2D;" d="M473.648,396.8V102.4c0-7.04-5.76-12.8-12.8-12.8H51.328c-7.04,0-12.8,5.76-12.8,12.8v294.4
	C38.528,396.8,474.712,396.8,473.648,396.8z"/>
<rect x="57.736" y="106.664" style="fill:#DB2B42;" width="396.712" height="290.16"/>
<rect y="396.8" style="fill:#E0E0E0;" width="512" height="8.536"/>
<polygon style="fill:#999999;" points="486.4,422.4 25.6,422.4 0,405.336 512,405.336 "/>
<g>
	<path style="fill:#FFFFFF;" d="M136.92,238.344c9.6-30.36,22.928-60.72,37.176-83.96l28.496-2.48
		c-9.6,26.328-17.352,56.392-21.688,83.648L136.92,238.344z M197.336,238.344c9.6-30.36,22.928-60.72,37.176-83.96l28.496-2.48
		c-9.296,26.328-17.352,56.392-21.688,83.648L197.336,238.344z"/>
	<path style="fill:#FFFFFF;" d="M315.144,259.384c-9.608,30.36-23.24,60.72-37.176,83.952l-28.504,2.488
		c9.296-26.336,17.352-56.392,21.688-83.648L315.144,259.384z M375.552,259.384c-9.608,30.36-22.928,60.72-37.176,83.952
		l-28.504,2.488c9.296-26.336,17.352-56.392,21.688-83.648L375.552,259.384z"/>
</g>
<g>
</g>
<g>
</g>
<g>
</g>
<g>
</g>
<g>
</g>
<g>
</g>
<g>
</g>
<g>
</g>
<g>
</g>
<g>
</g>
<g>
</g>
<g>
</g>
<g>
</g>
<g>
</g>
<g>
</g>
</svg>
